<svg width="167" height="40" viewBox="0 0 167 40" fill="none" xmlns="http://www.w3.org/2000/svg">
<rect x="0.5" width="166" height="40" rx="20" fill="url(#paint0_linear_10796_26133)"/>
<path d="M24.1187 23.172L24.6227 22.032C24.9827 22.28 25.3747 22.472 25.7987 22.608C26.2307 22.736 26.6587 22.804 27.0827 22.812C27.5067 22.82 27.8907 22.772 28.2347 22.668C28.5867 22.564 28.8667 22.408 29.0747 22.2C29.2827 21.992 29.3867 21.732 29.3867 21.42C29.3867 21.044 29.2307 20.764 28.9187 20.58C28.6147 20.388 28.1987 20.292 27.6707 20.292H25.7147V19.068H27.5507C28.0227 19.068 28.3867 18.972 28.6427 18.78C28.9067 18.588 29.0387 18.328 29.0387 18C29.0387 17.728 28.9507 17.504 28.7747 17.328C28.6067 17.152 28.3747 17.02 28.0787 16.932C27.7907 16.844 27.4627 16.804 27.0947 16.812C26.7347 16.812 26.3587 16.868 25.9667 16.98C25.5747 17.084 25.2027 17.24 24.8507 17.448L24.3587 16.188C24.8867 15.908 25.4387 15.712 26.0147 15.6C26.5987 15.488 27.1627 15.456 27.7067 15.504C28.2507 15.552 28.7387 15.676 29.1707 15.876C29.6107 16.076 29.9627 16.34 30.2267 16.668C30.4907 16.988 30.6227 17.368 30.6227 17.808C30.6227 18.208 30.5147 18.564 30.2987 18.876C30.0907 19.18 29.8027 19.416 29.4347 19.584C29.0667 19.752 28.6387 19.836 28.1507 19.836L28.2107 19.452C28.7627 19.452 29.2427 19.548 29.6507 19.74C30.0667 19.924 30.3867 20.18 30.6107 20.508C30.8427 20.836 30.9587 21.216 30.9587 21.648C30.9587 22.056 30.8547 22.42 30.6467 22.74C30.4387 23.052 30.1547 23.316 29.7947 23.532C29.4347 23.74 29.0227 23.896 28.5587 24C28.0947 24.096 27.6067 24.132 27.0947 24.108C26.5827 24.084 26.0707 23.996 25.5587 23.844C25.0547 23.692 24.5747 23.468 24.1187 23.172ZM31.8717 24L35.6517 15.6H37.1877L40.9797 24H39.3477L36.0957 16.428H36.7197L33.4797 24H31.8717ZM33.6117 22.056L34.0317 20.832H38.5677L38.9877 22.056H33.6117ZM42.4798 24V15.6H49.0198V16.884H44.0158V18.948H46.4998C47.5078 18.948 48.2718 19.16 48.7918 19.584C49.3198 20 49.5838 20.608 49.5838 21.408C49.5838 22.232 49.2918 22.872 48.7078 23.328C48.1318 23.776 47.3158 24 46.2598 24H42.4798ZM44.0158 22.8H46.1758C46.7758 22.8 47.2318 22.684 47.5438 22.452C47.8558 22.22 48.0118 21.884 48.0118 21.444C48.0118 20.58 47.3998 20.148 46.1758 20.148H44.0158V22.8ZM51.492 24V15.6H54.948C55.692 15.6 56.328 15.72 56.856 15.96C57.392 16.2 57.804 16.544 58.092 16.992C58.38 17.44 58.524 17.972 58.524 18.588C58.524 19.204 58.38 19.736 58.092 20.184C57.804 20.632 57.392 20.976 56.856 21.216C56.328 21.456 55.692 21.576 54.948 21.576H52.356L53.052 20.844V24H51.492ZM53.052 21.012L52.356 20.256H54.876C55.564 20.256 56.08 20.112 56.424 19.824C56.776 19.528 56.952 19.116 56.952 18.588C56.952 18.052 56.776 17.64 56.424 17.352C56.08 17.064 55.564 16.92 54.876 16.92H52.356L53.052 16.152V21.012ZM64.217 24.12C63.561 24.12 62.957 24.012 62.405 23.796C61.853 23.58 61.373 23.28 60.965 22.896C60.557 22.504 60.241 22.048 60.017 21.528C59.793 21 59.681 20.424 59.681 19.8C59.681 19.176 59.793 18.604 60.017 18.084C60.241 17.556 60.557 17.1 60.965 16.716C61.373 16.324 61.853 16.02 62.405 15.804C62.957 15.588 63.557 15.48 64.205 15.48C64.861 15.48 65.461 15.588 66.005 15.804C66.557 16.02 67.037 16.324 67.445 16.716C67.853 17.1 68.169 17.556 68.393 18.084C68.617 18.604 68.729 19.176 68.729 19.8C68.729 20.424 68.617 21 68.393 21.528C68.169 22.056 67.853 22.512 67.445 22.896C67.037 23.28 66.557 23.58 66.005 23.796C65.461 24.012 64.865 24.12 64.217 24.12ZM64.205 22.752C64.629 22.752 65.021 22.68 65.381 22.536C65.741 22.392 66.053 22.188 66.317 21.924C66.581 21.652 66.785 21.34 66.929 20.988C67.081 20.628 67.157 20.232 67.157 19.8C67.157 19.368 67.081 18.976 66.929 18.624C66.785 18.264 66.581 17.952 66.317 17.688C66.053 17.416 65.741 17.208 65.381 17.064C65.021 16.92 64.629 16.848 64.205 16.848C63.781 16.848 63.389 16.92 63.029 17.064C62.677 17.208 62.365 17.416 62.093 17.688C61.829 17.952 61.621 18.264 61.469 18.624C61.325 18.976 61.253 19.368 61.253 19.8C61.253 20.224 61.325 20.616 61.469 20.976C61.621 21.336 61.829 21.652 62.093 21.924C62.357 22.188 62.669 22.392 63.029 22.536C63.389 22.68 63.781 22.752 64.205 22.752ZM76.5577 15.6H78.1177V24H76.5577V15.6ZM72.2137 24H70.6537V15.6H72.2137V24ZM76.6777 20.4H72.0817V19.068H76.6777V20.4ZM80.686 24V15.6H82.222V21.564L86.734 15.6H88.186V24H86.65V18.048L82.138 24H80.686ZM90.7412 24V15.6H94.1972C94.9412 15.6 95.5772 15.72 96.1052 15.96C96.6412 16.2 97.0532 16.544 97.3412 16.992C97.6292 17.44 97.7732 17.972 97.7732 18.588C97.7732 19.204 97.6292 19.736 97.3412 20.184C97.0532 20.632 96.6412 20.976 96.1052 21.216C95.5772 21.456 94.9412 21.576 94.1972 21.576H91.6052L92.3012 20.844V24H90.7412ZM92.3012 21.012L91.6052 20.256H94.1252C94.8132 20.256 95.3292 20.112 95.6732 19.824C96.0252 19.528 96.2012 19.116 96.2012 18.588C96.2012 18.052 96.0252 17.64 95.6732 17.352C95.3292 17.064 94.8132 16.92 94.1252 16.92H91.6052L92.3012 16.152V21.012ZM103.466 24.12C102.81 24.12 102.206 24.012 101.654 23.796C101.102 23.58 100.622 23.28 100.214 22.896C99.8062 22.504 99.4902 22.048 99.2662 21.528C99.0422 21 98.9302 20.424 98.9302 19.8C98.9302 19.176 99.0422 18.604 99.2662 18.084C99.4902 17.556 99.8062 17.1 100.214 16.716C100.622 16.324 101.102 16.02 101.654 15.804C102.206 15.588 102.806 15.48 103.454 15.48C104.11 15.48 104.71 15.588 105.254 15.804C105.806 16.02 106.286 16.324 106.694 16.716C107.102 17.1 107.418 17.556 107.642 18.084C107.866 18.604 107.978 19.176 107.978 19.8C107.978 20.424 107.866 21 107.642 21.528C107.418 22.056 107.102 22.512 106.694 22.896C106.286 23.28 105.806 23.58 105.254 23.796C104.71 24.012 104.114 24.12 103.466 24.12ZM103.454 22.752C103.878 22.752 104.27 22.68 104.63 22.536C104.99 22.392 105.302 22.188 105.566 21.924C105.83 21.652 106.034 21.34 106.178 20.988C106.33 20.628 106.406 20.232 106.406 19.8C106.406 19.368 106.33 18.976 106.178 18.624C106.034 18.264 105.83 17.952 105.566 17.688C105.302 17.416 104.99 17.208 104.63 17.064C104.27 16.92 103.878 16.848 103.454 16.848C103.03 16.848 102.638 16.92 102.278 17.064C101.926 17.208 101.614 17.416 101.342 17.688C101.078 17.952 100.87 18.264 100.718 18.624C100.574 18.976 100.502 19.368 100.502 19.8C100.502 20.224 100.574 20.616 100.718 20.976C100.87 21.336 101.078 21.652 101.342 21.924C101.606 22.188 101.918 22.392 102.278 22.536C102.638 22.68 103.03 22.752 103.454 22.752ZM109.915 24V15.6H113.671C114.615 15.6 115.351 15.788 115.879 16.164C116.407 16.532 116.671 17.064 116.671 17.76C116.671 18.448 116.419 18.98 115.915 19.356C115.411 19.724 114.747 19.908 113.923 19.908L114.139 19.476C115.075 19.476 115.799 19.664 116.311 20.04C116.823 20.416 117.079 20.96 117.079 21.672C117.079 22.4 116.811 22.972 116.275 23.388C115.739 23.796 114.947 24 113.899 24H109.915ZM111.451 22.8H113.851C114.395 22.8 114.807 22.7 115.087 22.5C115.367 22.292 115.507 21.976 115.507 21.552C115.507 21.128 115.367 20.82 115.087 20.628C114.807 20.428 114.395 20.328 113.851 20.328H111.451V22.8ZM111.451 19.188H113.539C114.043 19.188 114.427 19.088 114.691 18.888C114.955 18.68 115.087 18.384 115.087 18C115.087 17.6 114.955 17.3 114.691 17.1C114.427 16.9 114.043 16.8 113.539 16.8H111.451V19.188ZM117.988 24L121.768 15.6H123.304L127.096 24H125.464L122.212 16.428H122.836L119.596 24H117.988ZM119.728 22.056L120.148 20.832H124.684L125.104 22.056H119.728ZM129.926 24V16.536L130.298 16.92H127.154V15.6H134.258V16.92H131.114L131.474 16.536V24H129.926ZM139.68 18.444C140.68 18.444 141.452 18.668 141.996 19.116C142.54 19.564 142.812 20.236 142.812 21.132C142.812 22.076 142.512 22.792 141.912 23.28C141.32 23.76 140.492 24 139.428 24H135.816V15.6H137.352V18.444H139.68ZM139.356 22.8C139.956 22.8 140.42 22.66 140.748 22.38C141.084 22.1 141.252 21.692 141.252 21.156C141.252 20.628 141.088 20.244 140.76 20.004C140.432 19.756 139.964 19.632 139.356 19.632H137.352V22.8H139.356Z" fill="white"/>
<defs>
<linearGradient id="paint0_linear_10796_26133" x1="80.5103" y1="-74.375" x2="-7.81093" y2="216.322" gradientUnits="userSpaceOnUse">
<stop stop-color="#F83600"/>
<stop offset="1" stop-color="#F9D423"/>
</linearGradient>
</defs>
</svg>
